<svg width="361" height="69" viewBox="0 0 361 69" fill="none" xmlns="http://www.w3.org/2000/svg">
<g clip-path="url(#clip0_353_2334)">
<path d="M107.206 61.5929C103.683 61.5929 100.496 60.7491 97.7284 58.9771C94.9604 57.2053 92.7796 54.8427 91.102 51.8052C89.5083 48.7675 88.6695 45.3082 88.6695 41.3424C88.6695 37.4612 89.5083 33.9174 91.102 30.8799C92.6957 27.8424 94.8765 25.3955 97.6445 23.7078C100.412 21.936 103.516 21.0922 107.039 21.0922C109.555 21.0922 111.987 21.5985 114.336 22.6954C116.601 23.7923 118.446 25.1423 119.872 26.7453V7.59194C119.872 6.66381 120.627 5.90442 121.55 5.90442H125.827C126.75 5.90442 127.505 6.66381 127.505 7.59194V59.1459C127.505 60.074 126.75 60.8334 125.827 60.8334H121.466C120.543 60.8334 119.788 60.074 119.788 59.1459V55.5176C118.614 57.2053 116.852 58.6397 114.588 59.8208C112.239 61.002 109.807 61.5929 107.206 61.5929ZM108.213 54.927C110.562 54.927 112.575 54.3364 114.336 53.1552C116.097 51.9738 117.523 50.3706 118.53 48.2614C119.536 46.2363 120.04 43.8737 120.04 41.2581C120.04 38.6424 119.536 36.28 118.53 34.2548C117.523 32.2299 116.097 30.5422 114.336 29.361C112.575 28.1798 110.562 27.5892 108.213 27.5892C105.864 27.5892 103.851 28.1798 102.09 29.361C100.328 30.5422 98.9027 32.1454 97.8961 34.2548C96.8896 36.28 96.3863 38.6424 96.3863 41.2581C96.3863 43.8737 96.8896 46.2363 97.8961 48.2614C98.9027 50.2863 100.328 51.9738 102.09 53.1552C103.935 54.3364 105.948 54.927 108.213 54.927Z" fill="white"/>
<path d="M153.842 61.5916C149.816 61.5916 146.293 60.7476 143.274 59.0601C140.17 57.3726 137.822 55.01 136.06 52.0568C134.299 49.1038 133.46 45.6444 133.46 41.8474C133.46 37.713 134.299 34.1692 135.976 31.0472C137.654 27.9254 140.003 25.5628 143.022 23.7908C145.958 22.019 149.397 21.0908 153.255 21.0908C156.61 21.1752 159.63 22.019 162.314 23.6222C164.998 25.2253 167.095 27.5034 168.689 30.2878C170.199 33.0723 170.954 36.363 170.87 39.9911L170.786 43.2818H141.093C141.512 46.8256 142.938 49.6099 145.371 51.6351C147.803 53.66 150.907 54.7569 154.597 54.7569C156.526 54.7569 158.288 54.4194 159.965 53.8288C161.224 53.3226 162.566 52.5631 163.992 51.4662C164.747 50.8756 165.837 51.0445 166.424 51.8037L168.353 54.5037C168.857 55.2632 168.773 56.1914 168.018 56.782C166.424 58.1321 164.495 59.229 162.23 60.0727C159.378 61.0007 156.61 61.5916 153.842 61.5916ZM153.171 28.0097C146.545 28.0097 142.603 31.0472 141.261 37.0379H162.985V36.5316C162.817 34.9284 162.314 33.4098 161.391 32.1441C160.469 30.8786 159.294 29.866 157.869 29.1066C156.359 28.3471 154.849 28.0097 153.171 28.0097Z" fill="white"/>
<path d="M183.369 59.1481V29.2789H176.994C176.071 29.2789 175.316 28.5194 175.316 27.5914V23.5413C175.316 22.613 176.071 21.8536 176.994 21.8536H183.369V13.5848C183.369 12.6567 184.123 11.8973 185.046 11.8973H189.324C190.247 11.8973 191.001 12.6567 191.001 13.5848V21.8536H198.299C199.222 21.8536 199.976 22.613 199.976 23.5413V27.5914C199.976 28.5194 199.222 29.2789 198.299 29.2789H191.001V59.1481C191.001 60.0761 190.247 60.8356 189.324 60.8356H185.046C184.123 60.8356 183.369 60.0761 183.369 59.1481Z" fill="white"/>
<path d="M220.778 61.5916C217.589 61.5916 214.655 60.6635 212.054 58.8915C209.454 57.1197 207.357 54.6728 205.764 51.6353C204.17 48.5976 203.415 45.1383 203.415 41.2568C203.415 37.3756 204.254 33.8318 205.847 30.7943C207.441 27.7568 209.622 25.3942 212.306 23.6224C215.074 21.8504 218.094 21.0066 221.533 21.0066C224.468 21.0066 226.984 21.5972 229.25 22.8629C231.514 24.1284 233.192 25.7316 234.365 27.7568V23.5378C234.365 22.6098 235.122 21.8504 236.043 21.8504H240.405C241.327 21.8504 242.082 22.6098 242.082 23.5378V59.1446C242.082 60.0729 241.327 60.8321 240.405 60.8321H236.043C235.122 60.8321 234.365 60.0729 234.365 59.1446V54.8414C233.024 56.6977 231.178 58.3009 228.746 59.6509C226.229 60.9166 223.629 61.5916 220.778 61.5916ZM222.79 54.504C225.138 54.504 227.152 53.9134 228.914 52.8165C230.676 51.7196 232.101 50.1164 233.108 48.0915C234.115 46.0663 234.617 43.7883 234.617 41.2568C234.617 38.7256 234.115 36.4475 233.108 34.5069C232.101 32.5661 230.676 30.9629 228.914 29.866C227.152 28.7691 225.138 28.1785 222.79 28.1785C220.526 28.1785 218.512 28.7691 216.751 29.866C214.99 31.0474 213.648 32.5661 212.642 34.5069C211.635 36.4475 211.132 38.7256 211.132 41.2568C211.132 43.8726 211.635 46.1506 212.642 48.0915C213.648 50.1164 214.99 51.6353 216.751 52.8165C218.512 53.9134 220.526 54.504 222.79 54.504Z" fill="white"/>
<path d="M249.797 59.1459V7.59194C249.797 6.66381 250.552 5.90442 251.475 5.90442H255.753C256.676 5.90442 257.43 6.66381 257.43 7.59194V59.1459C257.43 60.074 256.676 60.8334 255.753 60.8334H251.475C250.552 60.8334 249.797 60.074 249.797 59.1459Z" fill="white"/>
<path d="M265.232 59.1459V7.59194C265.232 6.66381 265.986 5.90442 266.909 5.90442H271.187C272.11 5.90442 272.865 6.66381 272.865 7.59194V27.9267C274.122 25.986 275.968 24.3829 278.316 23.0328C280.664 21.6828 283.098 21.0078 285.615 21.0078C294.505 21.0078 298.867 26.3235 298.867 37.0392V59.1459C298.867 60.074 298.112 60.8334 297.189 60.8334H292.911C291.989 60.8334 291.234 60.074 291.234 59.1459V37.5455C291.234 30.8799 288.465 27.6735 283.014 27.9267C281.084 27.9267 279.323 28.3484 277.813 29.1924C276.304 30.0361 275.045 31.133 274.122 32.483C273.199 33.8331 272.781 35.436 272.781 37.1237V59.0614C272.781 59.9897 272.026 60.7491 271.103 60.7491H266.825C265.986 60.8334 265.232 60.074 265.232 59.1459Z" fill="white"/>
<path d="M325.122 61.5916C321.096 61.5916 317.572 60.7476 314.554 59.0601C311.451 57.3726 309.101 55.01 307.341 52.0568C305.579 49.1038 304.741 45.6444 304.741 41.8474C304.741 37.713 305.579 34.1692 307.257 31.0472C308.935 27.9254 311.283 25.5628 314.301 23.7908C317.238 22.019 320.677 21.0908 324.535 21.0908C327.89 21.1752 330.909 22.019 333.593 23.6222C336.278 25.2253 338.374 27.5034 339.969 30.2878C341.479 33.0723 342.234 36.363 342.149 39.9911V41.5943C342.149 42.5223 341.395 43.2818 340.472 43.2818H312.456C312.876 46.8256 314.301 49.6099 316.734 51.6351C319.166 53.66 322.271 54.7569 325.96 54.7569C327.89 54.7569 329.652 54.4194 331.329 53.8288C332.586 53.3226 333.93 52.5631 335.355 51.4662C336.11 50.8756 337.201 51.0445 337.787 51.8037L339.717 54.5037C340.22 55.2632 340.135 56.1914 339.381 56.782C337.787 58.1321 335.858 59.229 333.593 60.0727C330.659 61.0007 327.89 61.5916 325.122 61.5916ZM324.451 28.0097C317.825 28.0097 313.883 31.0472 312.54 37.0379H334.264V36.5316C334.098 34.9284 333.593 33.4098 332.671 32.1441C331.748 30.8786 330.575 29.866 329.147 29.1066C327.722 28.3471 326.128 28.0097 324.451 28.0097Z" fill="white"/>
<path d="M358.168 9.61766C357.077 8.52075 355.568 7.93011 353.638 7.93011C351.708 7.93011 350.199 8.52075 349.108 9.70203C348.019 10.8833 347.43 12.4021 347.43 14.2583C347.43 16.2834 347.935 17.8022 349.026 18.899C350.115 19.9959 351.624 20.5866 353.554 20.5866C355.484 20.5866 356.993 19.996 358.084 18.8147C359.173 17.6334 359.762 16.1146 359.762 14.2583C359.762 12.3177 359.173 10.7145 358.168 9.61766Z" fill="white"/>
<path d="M355.736 24.3842H351.458C350.535 24.3842 349.78 25.1436 349.78 26.0716V59.1472C349.78 60.0753 350.535 60.8347 351.458 60.8347H355.736C356.659 60.8347 357.414 60.0753 357.414 59.1472V26.0716C357.414 25.1436 356.659 24.3842 355.736 24.3842Z" fill="white"/>
<path d="M39.8902 3.01653V65.5403C39.8902 67.1698 38.5704 68.5578 36.8904 68.5578H34.6706C15.4724 68.5578 0.413773 53.7114 0.413773 34.8215V34.5199C0.413773 15.4488 15.7724 -0.0010376 34.7307 -0.0010376H36.9504C38.5704 -0.0010376 39.8902 1.32668 39.8902 3.01653ZM29.5111 57.5739V11.1036C18.8321 13.5176 10.8528 23.1135 10.8528 34.5803V34.8819C10.7928 46.1071 18.7121 55.2807 29.5111 57.5739Z" fill="#329FC0"/>
<path d="M71.3859 25.5008C76.7869 25.5008 81.1651 21.0965 81.1651 15.6635C81.1651 10.2306 76.7869 5.82629 71.3859 5.82629C65.9851 5.82629 61.6069 10.2306 61.6069 15.6635C61.6069 21.0965 65.9851 25.5008 71.3859 25.5008Z" fill="#2FBF90"/>
<path d="M43.0092 59.625V67.1087C43.0092 67.9535 43.7292 68.6778 44.569 68.6174C62.0875 67.7122 76.1262 53.5899 77.0862 35.9675C77.1461 35.1224 76.4261 34.3984 75.5863 34.3984H68.147C67.3671 34.3984 66.707 35.0017 66.6471 35.7864C65.8672 47.7359 56.268 57.392 44.389 58.1163C43.6091 58.1766 43.0092 58.8405 43.0092 59.625Z" fill="#FF9D00"/>
<rect x="43" width="10.7812" height="40.9688" rx="1" fill="#C82B5E"/>
</g>
<defs>
<clipPath id="clip0_353_2334">
<rect width="360.094" height="69" fill="white"/>
</clipPath>
</defs>
</svg>
